<?xml version="1.0" encoding="utf-8" ?><svg xmlns="http://www.w3.org/2000/svg" xmlns:xlink="http://www.w3.org/1999/xlink" width="1024" height="576" viewBox="0 0 1024 576"><path fill="#6E60D6" d="M177.626 194.16C191.709 193.416 211.628 194.001 226.052 193.974L226.071 302.979L238.074 302.96L237.995 269.316C237.986 264.399 237.388 255.068 238.513 250.699C242.382 235.659 256.897 236.541 269.157 236.958C273.711 237.113 277.85 237.02 281.973 237.054C281.82 249.992 282.159 263.074 282.059 276.021C281.79 284.063 282.882 292.882 281.004 300.752C278.481 311.327 268.359 320.837 257.791 323.035C249.866 324.684 240.493 324.157 232.353 324.14L201.875 324.116C200.474 324.206 200.342 324.271 199.073 323.769C198.24 321.349 198.564 300.638 198.89 297.16C193.653 308.502 189.055 320.826 174.996 323.423C167.95 324.725 160.295 324.141 153.104 324.187C141.029 324.265 128.955 324 116.876 324.23C116.462 306.084 116.82 287.675 116.642 269.548C116.395 244.468 129.835 246.557 149.132 247.008C148.806 265.709 149.073 285.189 149.082 303.932C152.692 303.97 156.356 303.795 159.968 303.668C159.346 273.066 159.931 240.591 160.3 209.879C160.402 201.357 169.499 195.341 177.626 194.16Z"/><path fill="#0E1B1D" d="M513.678 305.091C501.867 316.932 484.679 317.971 472.253 306.017C464.117 297.83 463.213 289.096 462.862 278.598C461.901 249.918 492.519 230.87 513.842 254.278C513.676 251.305 513.781 248.076 513.816 245.08L530.065 244.984C529.81 268.253 530.237 291.532 530.017 314.803C529.997 316.915 529.961 319.015 529.623 321.105C524.771 350.202 476.912 353.292 465.114 326.938C469.768 324.549 474.952 322.261 479.726 319.946C486.011 330.242 497.786 335.289 508.55 326.629C514.091 322.172 513.587 311.878 513.678 305.091ZM499.119 300.478C512.256 297.628 515.817 285.533 513.083 273.422C510.86 263.573 504.924 258.881 494.933 258.629C472.824 262.235 474.653 302.448 499.119 300.478Z"/><path d="M530.065 244.984C529.81 268.253 530.237 291.532 530.017 314.803C529.997 316.915 529.961 319.015 529.623 321.105C528.783 303.198 527.787 285.595 528.424 267.584C528.619 262.062 527.453 249.278 530.065 244.984Z"/><path fill="#0E1B1D" d="M416.749 244.122C425.805 243.719 433.624 244.454 441.344 249.979C462.708 265.271 460.23 306.304 434.361 315.711C431.157 316.876 429.014 317.348 425.698 317.859C424.046 317.953 422.431 318.04 420.747 318.049C385.605 318.228 375.797 269.477 400.804 250.084C405.488 246.452 410.964 245.068 416.749 244.122ZM424.429 303.01C446.05 296.657 442.952 257.124 418.818 258.604C414.55 259.612 410.208 262.042 408.252 266.065C400.92 281.149 403.68 303.909 424.429 303.01Z"/><path fill="#0E1B1D" d="M749.943 244.12L753.677 244.021C780.563 243.572 788.883 262.742 788.934 285.984C775.01 285.522 761.002 285.654 747.068 285.633C745.082 285.63 740.265 285.339 739.048 286.814C738.477 304.233 761.458 311.41 772.751 294.389C774.528 294.709 776.318 294.869 778.114 295.062C781.141 295.532 785.201 295.872 788.322 296.237C787.168 298.829 785.947 301.292 784.536 303.78C775.802 319.31 751.42 322.157 737.244 313.247C714.868 299.183 716.595 257.752 741.008 246.653C743.986 245.299 746.776 244.754 749.943 244.12ZM739.035 274.561C745.475 274.5 751.936 274.407 758.375 274.435L772.311 274.513C768.972 262.702 765.502 256.981 752.083 257.613C742.806 260.184 740.94 265.921 739.035 274.561Z"/><path fill="#0E1B1D" d="M868.341 244.155C883.145 243.468 898.084 245.598 901.995 262.992C903.657 270.386 903.017 278.777 903.014 286.388L902.974 316.747C897.841 316.539 892.237 316.603 887.066 316.562L887.024 308.724C874.948 321.263 853.828 322.209 843.477 307.2C836.132 291.19 845.947 277.498 862.456 275.353C870.594 274.296 877.957 274.122 886.116 273.986C886.167 270.54 886.355 267.512 884.88 264.21C881.836 257.397 873.044 255.367 866.665 258.607C862.499 260.722 861.273 263.161 859.843 267.542C855.554 266.46 848.825 265.829 844.298 265.3C847.606 250.876 854.013 246.229 868.341 244.155ZM859.358 291.322C858.145 297.031 858.101 299.658 863.07 303.36C871.122 306.727 881.925 304.204 885.332 295.502C886.203 293.279 887.564 286.501 885.955 284.613L884.359 284.754C875.944 285.068 865.166 284.314 859.358 291.322Z"/><path fill="#0E1B1D" d="M537.387 245.126C543.488 245.004 549.656 245.078 555.763 245.101C556.694 247.62 557.546 250.347 558.335 252.919C562.952 267.989 568.54 282.902 572.846 298.049L588.947 245.064L607.624 245.043C601.524 261.27 595.774 277.608 589.977 293.945C585.575 306.086 579.234 329.294 571.038 338.262C564.696 345.2 552.953 344.067 544.099 343.916C544.439 340.41 544.168 333.348 544.127 329.575C557.04 329.615 561.279 330.328 563.998 316.235C556.011 292.875 544.389 268.603 537.387 245.126Z"/><path fill="#0E1B1D" d="M634.092 244.156C650.462 243.234 665.279 247.075 667.289 265.919C662.531 265.829 656.876 266.677 652.078 267.259C651.181 264.165 650.873 263.071 648.751 260.738C643.803 255.148 627.439 255.745 628.181 265.4C628.566 269.441 633.378 272.282 637.56 272.715C659.233 274.957 681.771 285.964 663.683 310.253C659.93 315.292 649.601 317.449 642.677 317.991C625.358 318.002 613.77 313.357 609.692 295.215C614.914 294.423 620.274 293.697 625.408 292.499C628.368 301.717 635.005 305.478 644.715 304.409C648.884 303.95 654.149 299.36 652.991 294.909C651.02 287.339 636.299 287.764 630.102 285.462C625.821 283.948 622.106 283.428 618.312 280.578C609.662 274.695 608.825 262.042 614.906 253.928C619.994 247.139 626.11 245.396 634.092 244.156Z"/><path fill="#0E1B1D" d="M325.028 219.47C330.313 219.207 336.674 219.4 342.036 219.429C341.408 245.64 341.972 274.671 342.06 301.089L384.112 301.071C383.946 306.115 384.02 311.559 383.994 316.635C364.991 316.492 343.954 316.278 325.058 316.813L325.028 219.47Z"/><path fill="#0E1B1D" d="M684.053 229.105L700.558 229.032L700.594 245.037L716.034 245.077L716.045 259.084C710.977 258.931 705.691 259.053 700.605 259.099C700.761 271.02 700.033 283.067 700.921 294.942C701.609 304.146 710.453 302.466 716.97 301.314C716.978 305.69 716.895 309.597 717.485 313.939C717.377 315.791 717.656 315.19 716.625 316.417C709.612 319.317 693.067 317.414 687.998 311.529C682.906 305.615 683.948 293.104 683.973 285.528L684.096 259.008L672.972 258.998C673.543 254.055 673.316 250.186 672.959 245.267C675.871 244.968 680.971 245.059 684.054 245.031L684.053 229.105Z"/><path fill="#0E1B1D" d="M830.509 244.139C834.373 243.992 835.823 244.248 839.603 244.862L839.433 261.932C823.315 258.025 814.541 263.955 814.112 281.023C813.812 292.961 813.989 304.944 814.005 316.889C808.893 316.587 803.067 316.325 798 316.972C798.77 294.489 797.995 268.003 798.092 245.075L814.029 244.923C813.982 249.103 813.765 252.954 813.503 257.129C818.448 248.921 821.052 246.019 830.509 244.139Z"/></svg>