<?xml version="1.0" encoding="utf-8" ?><svg xmlns="http://www.w3.org/2000/svg" xmlns:xlink="http://www.w3.org/1999/xlink" width="1024" height="166" viewBox="0 0 1024 166"><path fill="#6E60D6" d="M176.505 6.58076C190.595 5.81262 211.48 6.43014 226.036 6.41851L226.103 115.416L238.043 115.407L237.978 72.3459C237.975 57.8834 242.743 49.3616 258.901 49.3634C266.466 49.3643 274.36 49.4364 281.947 49.446C281.749 64.9909 282.202 80.8111 282.085 96.51C282.389 108.614 282.033 117.759 272.95 126.952C261.724 138.314 247.44 136.573 232.965 136.555L204.226 136.51L198.888 136.524C198.654 129.197 198.281 116.434 198.826 109.554C186.419 137.765 180.845 136.582 152.305 136.565L116.948 136.545C116.035 118.078 117.144 98.7536 116.67 80.2186C116.502 73.6949 117.556 67.9676 122.435 63.2904C128.491 57.4856 140.995 59.2939 149.072 59.4532L149.114 116.351C152.688 116.373 156.314 116.247 159.89 116.158L159.889 53.3286C159.885 44.3125 159.845 35.2948 159.961 26.2796C160.102 15.3415 165.975 8.87666 176.505 6.58076Z"/><path fill="#0E1B1D" d="M513.652 117.428L513.531 117.548C506.751 124.111 502.305 126.549 492.542 126.643C452.004 127.033 453.294 55.2939 493.25 56.4522C502.999 56.7348 507.229 59.6969 513.627 66.4119L513.985 57.4292C519.125 57.4775 524.034 57.4378 529.173 57.3144L529.944 58.0075C530.601 71.4954 529.599 88.2026 530.055 102.078C530.212 106.885 530.255 129.926 529.62 133.224C529.58 133.802 529.437 134.206 529.325 134.762C524.436 159.134 489.278 163.105 472.485 149.448C468.837 146.482 466.963 143.429 465.181 139.169C469.711 137.25 475.208 134.472 479.75 132.341C485.934 142.86 497.974 147.575 508.63 138.933C514.161 134.446 513.603 124.048 513.652 117.428ZM500.377 112.642C522.982 105.665 515.297 68.228 494.495 71.14C472.765 74.3657 474.735 116.743 500.377 112.642Z"/><path d="M529.173 57.3144L529.944 58.0075C530.601 71.4954 529.599 88.2026 530.055 102.078C530.212 106.885 530.255 129.926 529.62 133.224C529.044 125.662 527.064 62.3014 529.173 57.3144Z"/><path fill="#0E1B1D" d="M415.543 56.6256C424.506 56.0488 432.442 56.5304 440.289 61.6493C457.434 72.8337 460.126 99.8057 449.301 116.146C444.274 123.735 436.802 128.101 427.925 129.85C393.475 136.102 376.649 96.8542 393.321 70.3698C398.618 61.9557 406.14 58.5019 415.543 56.6256ZM424.883 115.331C438.825 110.251 441.068 95.9505 436.854 82.7613C434.04 73.9513 427.444 70.6887 418.452 71.0793C398.685 75.574 398.872 118.173 424.883 115.331Z"/><path fill="#0E1B1D" d="M749.015 56.6109C777.879 54.0045 788.985 71.9663 788.919 98.4619C783.38 98.2158 741.02 97.3544 739.48 98.722C738.661 100.067 738.472 101.169 738.922 102.719C741.785 112.574 751.084 118.542 761.219 115.97C766.961 114.513 769.673 111.625 772.62 106.771L776.895 107.334C780.431 107.63 784.603 108.227 788.177 108.647C783.659 119.571 777.569 126.871 765.486 129.552C756.003 131.656 745.738 130.893 737.364 125.66C715.027 111.703 716.56 71.2937 740.196 59.3871C743.144 57.8997 745.834 57.305 749.015 56.6109ZM760.245 86.75C764.24 86.8418 768.29 86.8992 772.278 87.033C769.129 74.7843 765.231 69.219 751.665 70.0931C743.063 72.4828 740.526 78.7747 739.06 87.0235C746.095 86.8722 753.216 86.6543 760.245 86.75Z"/><path fill="#0E1B1D" d="M867.32 56.6466C882.512 55.7711 898.054 57.5706 902.037 75.5989C903.667 82.9741 903.043 91.5687 903.026 99.1912L902.972 129.217C897.962 128.928 892.17 129.031 887.095 129.012L887.007 121.107C879.472 128.352 872.492 131.473 861.72 130.314C854.307 129.516 848.26 126.46 843.918 120.276C842.256 117.415 841.203 113.004 841.221 109.72C841.356 85.1837 869.118 86.6726 886.111 86.3711C886.177 82.8069 886.344 79.9618 884.883 76.6419C881.202 68.2826 869.106 67.1699 863.105 73.5622C861.166 75.6274 860.683 77.3373 859.768 79.9549C854.942 78.7169 849.403 78.3032 844.402 77.8009C846.969 63.9984 853.914 58.8291 867.32 56.6466ZM863.935 116.324C873.216 118.146 883.798 116.388 886.104 105.438C886.408 103.993 886.903 98.1701 886.21 97.0496C884.646 97.093 883.251 97.1359 881.685 97.2879C877.023 97.435 868.756 97.3552 864.786 99.4585C856.288 103.961 856.716 110.993 863.935 116.324Z"/><path fill="#0E1B1D" d="M588.979 57.4527L607.512 57.4484C601.505 73.7225 595.957 90.2453 589.889 106.44C588.724 110.57 586.047 117.275 584.537 121.639C581.867 128.835 579.753 136.1 576.476 143.054C569.578 157.692 557.745 156.525 544.213 156.382C544.383 152.009 544.182 146.487 544.142 142.031C557.021 142.178 561.268 142.626 564.043 128.504L546.051 81.3934C544.041 76.0396 538.623 62.4451 537.548 57.471L555.689 57.4869C558.114 63.7389 560.562 72.3085 562.713 78.8849C566.066 89.1379 569.981 100.182 572.827 110.511L588.979 57.4527Z"/><path fill="#0E1B1D" d="M633.032 56.6409C650.275 55.4607 664.788 59.0569 667.364 78.287C662.048 78.4413 657.436 78.9946 652.142 79.6095C650.993 76.1801 650.969 75.364 648.13 72.5398C642.837 67.2748 627.693 68.6974 628.107 77.7071C628.449 85.1376 642.157 85.779 647.73 87.1676C652.838 88.4405 659.287 89.7108 663.65 93.456C671.498 99.8694 671.981 112.824 665.516 120.518C659.065 128.195 652.081 129.404 642.62 130.383C632.757 130.922 621.171 128.042 614.835 119.995C611.581 115.862 610.824 112.552 609.672 107.617C614.892 106.825 620.158 106.087 625.315 104.963C629.096 115.33 634.252 117.462 645.134 116.375C648.915 115.998 654.893 111.097 653.779 107.854C651.151 100.207 636.585 100.119 629.971 97.7961C625.849 96.7103 622.3 95.2797 618.689 93.0006C609.627 87.2803 608.602 75.0061 614.765 66.643C619.854 59.7374 624.821 58.1607 633.032 56.6409Z"/><path fill="#0E1B1D" d="M325.082 31.6734C330.387 31.4701 336.341 31.6682 341.791 31.5358C342.388 39.4445 341.939 49.664 342.033 57.7898C342.246 76.265 341.76 95.0211 342.041 113.481L384.084 113.47C384.084 115.829 384.355 127.983 383.506 129.22C380.685 129.053 377.871 129.016 375.046 129.03C358.412 129.109 341.767 128.864 325.135 129.16C324.473 97.4122 325.124 63.6419 325.082 31.6734Z"/><path d="M341.791 31.5358C342.388 39.4445 341.939 49.664 342.033 57.7898C342.246 76.265 341.76 95.0211 342.041 113.481L384.084 113.47C384.084 115.829 384.355 127.983 383.506 129.22C381.794 125.506 382.353 119.778 382.416 115.559C369.622 115.589 353.482 115.665 340.826 114.336C340.92 96.4827 339.8 77.6732 340.34 59.6832C340.547 52.8181 339.994 37.7981 341.791 31.5358Z"/><path fill="#0E1B1D" d="M684.052 41.4219C689.588 41.5131 694.994 41.4732 700.53 41.4078L700.554 57.3952C705.66 57.4709 710.866 57.4206 715.98 57.4222L716.04 71.4979C710.923 71.4356 705.716 71.4842 700.591 71.4815C700.815 83.3934 700.012 95.449 700.914 107.322C701.62 116.615 710.361 114.883 716.945 113.799C716.952 118.161 716.963 121.543 717.396 125.881C717.392 127.72 717.672 127.41 716.739 128.666C708.027 132.663 685.652 129.697 684.675 116.336C683.585 101.42 684.013 86.4362 684.085 71.4509L673.025 71.3631C673.522 66.4459 673.318 62.4271 672.993 57.5418L684.055 57.4203L684.052 41.4219Z"/><path fill="#0E1B1D" d="M829.968 56.6136C833.559 56.3573 836.04 56.6296 839.554 57.2602C839.652 62.7549 839.459 68.8296 839.4 74.3677C820.554 69.5958 813.845 79.053 813.991 96.9081C814.079 107.627 813.993 118.678 814.001 129.417C808.868 128.993 803.259 128.784 798.133 129.273C797.664 123.147 798.021 111.434 798.026 104.927L798.078 57.4334C803.408 57.4651 808.659 57.4087 813.987 57.3268L813.705 69.2864C818.244 61.5113 821.073 58.4564 829.968 56.6136Z"/></svg>